<?xml version="1.0" encoding="UTF-8"?>
<svg version="1.1" viewBox="0 0 1376 1380" width="344" height="345" xmlns="http://www.w3.org/2000/svg">
<path transform="translate(490,148)" d="m0 0h13l3 2 1 5 1 176h598l13 1 1 1v18l-2 14-6 22-8 20-11 21-12 16-9 10-13 13-13 10-14 9-17 9-21 8-25 6-13 2-447 1-1 1v518h385l65-1 10-5 5-7 2-7v-13l-3-8-5-6-7-3-9-1-70-1-315-1-4-2-2-6v-402l4-4 36-1h359l136 1 24 1 1 1v15l-2 14-7 25-6 16-10 19-7 11-9 12-9 10-12 12-19 14-18 10-15 7-20 6-13 3-22 3-210 1-1 55h195l34 2 20 4 24 7 25 12 15 9 19 14 15 14 8 8 13 17 9 14 12 23 7 18 5 19 3 19 2 20v21l-4 27-6 21-6 16-11 22-9 14-12 16-12 13-12 11-14 11-15 10-18 10-25 10-20 6-26 4-16 1-248 3h-170l-29-1-24-5-17-5-21-9-18-10-17-12-10-9-8-7-9-11-11-15-12-21-8-19-6-21-3-17-1-10-1-454-1-76-3-1-20-2-23-5-21-7-23-11-18-12-11-9-16-15-7-8-12-17-8-14-5-11-7-19-6-24-2-12v-11l3-3 5-1h174l2-21 3-17 6-21 8-20 9-17 12-17 12-14 12-12 16-12 21-13 15-7 18-6 23-5z" fill="#305AA7"/>
<path transform="translate(490,148)" d="m0 0h13l3 2 1 5 1 176h598l13 1 1 1v18l-2 14-6 22-8 20-11 21-12 16-9 10-13 13-13 10-14 9-17 9-21 8-25 6-13 2-447 1-1 1v510l1 8 1 1 1 57 1 5 2 26 3 14 6 21 7 16 8 12 13 13 13 9-2 5-11 2h-12l-20 1-1 1h-25l-24-5-17-5-21-9-18-10-17-12-10-9-8-7-9-11-11-15-12-21-8-19-6-21-3-17-1-10-1-454-1-76-3-1-20-2-23-5-21-7-23-11-18-12-11-9-16-15-7-8-12-17-8-14-5-11-7-19-6-24-2-12v-11l3-3 5-1h174l2-21 3-17 6-21 8-20 9-17 12-17 12-14 12-12 16-12 21-13 15-7 18-6 23-5z" fill="#0AA1D0"/>
<path transform="translate(484,552)" d="m0 0h18l5 2 1 469 1 8 1 1 1 57 1 5 2 26 3 14 6 21 7 16 8 12 13 13 13 9-2 5-11 2h-12l-20 1-1 1h-25l-24-5-17-5-21-9-18-10-17-12-10-9-8-7-9-11-11-15-12-21-8-19-6-21-3-17-1-10v-454l8-7 10-6 20-8 17-5 32-6 27-3z" fill="#0AA1D0"/>
<path transform="translate(523,331)" d="m0 0h518v1l-31 1h-16l-6 2-18 1h-6l-1 2-12 2-17 2-7 2 1 6 11-1 2 1 1-3 9 1 5 1 1-4 2 1h12l7 1 8 1 4 4 13 2 2 5-8 1-14 4-6 1v4l4 2v3l-4 1-5-1-9 6-10 5-9 3h-9v2l-9 5-20 4-3 1-1 4-5 1-4-2-4 4-4-2-5 2-5-2v2l-2-1 1-3h-2v2l-5-1-3-1-3 3-9 1-1 2-3-1v-2h-5l-5 3-2-2-2-1h-6l-1-2h-9l-4-3-4 1-3-1v-2h-2v-2l-6-1-6-3-6-2-5-1-8-2-3-3h-8l-6-2-1-4-3-1-2 3-1-4v-2l-3 3-7 1-8 1v-8l-3 4-6 1v-8l-8 2v-2l-7-1-1-4-9-3-6-1-4-5-4 1-2-4 1-2h2v-3h16l2-3-12-2-7-1-28-2-26-1-24-1h-10l-10-1-2-1v-2l-61-1z" fill="#15B0E2"/>
<path transform="translate(505,854)" d="m0 0h1v19l1 2 1 148 1 8 1 1 1 57 1 5 2 26 3 14 6 21 7 16 8 12 13 13 13 9-2 5-11 2h-12l-20 1-1 1h-25l-24-5-17-5-21-9-18-10-17-12-10-9-8-7-9-11-11-15-12-21-8-19-6-21-3-17-1-10v-73l1-26 2 4 2 16 3 7 2 14 1 5 5 12 2 12 4 10 3 9 2 7 1 9 2 3 2 8 5 8 3 9 5 9 7 10v2l4 1 6 9 7 6 6 7 7 3 1 3 4 2v2h2v2l5 1 3 5 5 1 5 6v2h5l4 3h7l1 3 7-1 4 4 14 1v2l11 3 5 5 5 1-5-5-2-4 7-1 4 1 1-4-3-1 6-3-1-6h-2v-2l2-2 2-3-1-5v-9l-2-11-1-35v-29l-1-13v-21l1-7v-119l1-31z" fill="#098BB4"/>
<path transform="translate(328,513)" d="m0 0 24 1h16l45-1h69l25 1v40h-3l-6-1h-14l-42 2-33 4-30 6-24 8-14 7-11 8-3 1v-75z" fill="#037799"/>
<path transform="translate(1132,119)" d="m0 0h31l13 1 1 1v43l-17 1h-28l-1-1v-39z" fill="#747579"/>
<path transform="translate(124,1197)" d="m0 0h34l2 5v38l-5 2-39-1-1-2 1-36 2-4z" fill="#72767B"/>
<path transform="translate(1145,1198)" d="m0 0h31v41l-4 2-24 1h-15l-2-6 1-33 3-3z" fill="#757478"/>
<path transform="translate(123,120)" d="m0 0h25l7 3 3 5 2 13v12l-2 7-3 3h-39l-1-1v-14l1-20 2-5z" fill="#747579"/>
<path transform="translate(475,883)" d="m0 0 2 1v5l-2 3 9-1 2 5-5 4-3-4-1 4-1 7h2l1-3 5 3 2 5v4h-4v-3l-5-2h-2l-4 8-2 1v-2h-2v2h-4l-4 10-6 9-3 6h-4l-1-6-5-3-5-6-4 2-2 3-2-6 1-6-5 3v-3l-3 3-5-1-2-2v-6h3 3l4-1 9 3 3-2 2 1v3l2 1v2h2l2-7 5-6 4-8h2v-2l3-1 2 4 2 1 1-6 5-1h2l-2-6 3-2 3-6z" fill="#098CB4"/>
<path transform="translate(231,481)" d="m0 0 4 1v2h5l6 3 1 2 7 1 5 3 8 3 6 4 12 2v2l5-1 3 1 1-2 8 4h11v2h14l5 1 4 1 39 1h121l11 1v2h-96l-52 1h-16l-16-1-4-2-20-2-23-5-21-7-23-11-5-3z" fill="#098CB4"/>
<path transform="translate(484,552)" d="m0 0h18l5 2v7l-2 1-1-7-46 1-27 2-9 1-7 1-5 1-9 2-12 2-9 2h-4l-1 2-2-1-1 2-8 1-1 2-9 3-2 2-5 2-12 7-4 3-3 2 1-4 9-7 11-6 14-6 20-6 32-6 27-3z" fill="#098CB4"/>
<path transform="translate(155,389)" d="m0 0 5 2 2 5 11 22 4 6 4 7 7 10 5 5 3 2 1 5 4 2 6 7-3 1-12-11-9-10-11-16-8-14-5-11-4-10z" fill="#0A90B9"/>
<path transform="translate(231,481)" d="m0 0 4 1v2h5l6 3 1 2 7 1 5 3 8 3 6 4 12 2v2l5-1 3 1 1-2 8 4h11v2h5l1 3h-9l-26-5-20-6-18-8-15-8z" fill="#098FB8"/>
<path transform="translate(272,500)" d="m0 0 13 2v2l5-1 3 1 1-2 8 4h11v2h5l1 3h-9l-26-5-14-4z" fill="#0A90BA"/>
<path transform="translate(340,827)" d="m0 0 4 1v5l2 3-4 1-2 4-2 16-2 2v-12l2-12 1-7z" fill="#098CB4"/>
<path transform="translate(419,172)" d="m0 0 2 1-5 4-4 3h-2l-1 3-7 4h-2l-1 4-5 3h-3l2-4 13-10z" fill="#0A91BA"/>
<path transform="translate(365,1022)" d="m0 0 4 1 1 8h2l1 12 2 2-1 4-2 3-4-16-3-9-1-4z" fill="#098CB4"/>
<path transform="translate(753,388)" d="m0 0 4 1 6 5-4 2-8-1-6-2 3-2 4-1z" fill="#15B0E2"/>
<path transform="translate(171,333)" d="m0 0 9 3-1 7-5 4-3-1 2-3v-7h-2z" fill="#098CB4"/>
<path transform="translate(373,1052)" d="m0 0 3 1 2 7 3 1 1 4 2 4-3 3-2-1-2-9-3-4z" fill="#098CB4"/>
<path transform="translate(155,389)" d="m0 0 5 2 2 5 3 6h-2l-1 2h-2l-5-13z" fill="#0A91BB"/>
<path transform="translate(272,500)" d="m0 0 13 2 1 4-16-4z" fill="#0B94BF"/>
</svg>
